<svg fill="none" height="53" viewBox="0 0 120 53" width="120" xmlns="http://www.w3.org/2000/svg"><rect height="52" rx="7.5" stroke="#c5c5c5" width="119" x=".5" y=".5"/><path d="m13.26 20v-9.184h2.73c.4667 0 .8913.042 1.274.126.392.084.7233.2147.994.392.28.1773.4947.4107.644.7.1587.28.238.6207.238 1.022 0 .4573-.1167.8727-.35 1.246-.224.364-.5553.616-.994.756v.056c.56.1027 1.0127.336 1.358.7s.518.8633.518 1.498c0 .448-.084.84-.252 1.176s-.406.616-.714.84-.6767.392-1.106.504-.9007.168-1.414.168zm1.162-5.278h1.358c.784 0 1.3487-.1353 1.694-.406s.518-.6393.518-1.106c0-.532-.182-.91-.546-1.134-.3547-.224-.8913-.336-1.61-.336h-1.414zm0 4.354h1.596c.7933 0 1.4093-.1447 1.848-.434.4387-.2987.658-.756.658-1.372 0-.5693-.2147-.9847-.644-1.246-.4293-.2707-1.05-.406-1.862-.406h-1.596zm6.5565.924v-6.804h.952l.098 1.232h.042c.2333-.4293.5133-.77.84-1.022.336-.252.7-.378 1.092-.378.2706 0 .5133.0467.728.14l-.224 1.008c-.112-.0373-.2147-.0653-.308-.084-.0934-.0187-.21-.028-.35-.028-.2894 0-.5927.1167-.91.35-.308.2333-.5787.6393-.812 1.218v4.368zm7.0748.168c-.4574 0-.8867-.0793-1.288-.238-.392-.168-.7374-.4013-1.036-.7-.2894-.308-.518-.6813-.686-1.12s-.252-.938-.252-1.498.084-1.0593.252-1.498c.1773-.448.406-.826.686-1.134.2893-.308.616-.5413.98-.7.364-.168.742-.252 1.134-.252.4293 0 .812.0747 1.148.224.3453.1493.63.364.854.644.2333.28.4106.616.532 1.008.1213.392.182.8307.182 1.316 0 .1213-.0047.2427-.014.364 0 .112-.0094.21-.028.294h-4.592c.0466.728.2706 1.3067.672 1.736.4106.42.9426.63 1.596.63.3266 0 .6253-.0467.896-.14.28-.1027.546-.2333.798-.392l.406.756c-.2987.1867-.63.35-.994.49s-.7794.21-1.246.21zm-2.142-4.116h3.64c0-.6907-.1494-1.2133-.448-1.568-.2894-.364-.7-.546-1.232-.546-.2427 0-.476.0467-.7.14-.2147.0933-.4107.2333-.588.42-.1774.1773-.3267.3967-.448.658-.112.2613-.1867.56-.224.896zm7.3059 4.116c-.5694 0-1.0454-.168-1.428-.504-.3734-.336-.56-.812-.56-1.428 0-.7467.3313-1.316.994-1.708.6626-.4013 1.722-.6813 3.178-.84 0-.2147-.0234-.4247-.07-.63-.0374-.2053-.1074-.3873-.21-.546-.1027-.1587-.2474-.2847-.434-.378-.1774-.1027-.406-.154-.686-.154-.392 0-.7607.0747-1.106.224-.3454.1493-.6534.3173-.924.504l-.448-.798c.3173-.2053.7046-.4013 1.162-.588.4573-.196.9613-.294 1.512-.294.8306 0 1.4326.2567 1.806.77.3733.504.56 1.1807.56 2.03v4.172h-.952l-.098-.812h-.042c-.3267.2707-.6767.504-1.05.7-.3734.1867-.7747.28-1.204.28zm.336-.924c.3266 0 .6346-.0747.924-.224.2893-.1587.5973-.3873.924-.686v-1.89c-.5694.0747-1.05.1633-1.442.266-.3827.1027-.6954.224-.938.364-.2334.14-.406.3033-.518.49-.1027.1773-.154.3733-.154.588 0 .392.1166.672.35.84.2333.168.518.252.854.252zm4.7507.756v-9.968h1.134v6.748h.042l2.898-3.584h1.274l-2.282 2.73 2.59 4.074h-1.26l-1.988-3.276-1.274 1.484v1.792zm5.3424-3.066v-.882h3.22v.882zm4.6336 3.066v-9.184h5.292v.98h-4.13v2.884h3.486v.994h-3.486v3.332h4.27v.994zm8.2041 0-2.45-6.804h1.19l1.288 3.864c.1027.336.2053.672.308 1.008.112.336.2193.6673.322.994h.056c.1027-.3267.2053-.658.308-.994s.2054-.672.308-1.008l1.288-3.864h1.134l-2.408 6.804zm7.3685.168c-.4573 0-.8867-.0793-1.288-.238-.392-.168-.7373-.4013-1.036-.7-.2893-.308-.518-.6813-.686-1.12s-.252-.938-.252-1.498.084-1.0593.252-1.498c.1773-.448.406-.826.686-1.134.2893-.308.616-.5413.98-.7.364-.168.742-.252 1.134-.252.4293 0 .812.0747 1.148.224.3453.1493.63.364.854.644.2333.28.4107.616.532 1.008s.182.8307.182 1.316c0 .1213-.0047.2427-.014.364 0 .112-.0093.21-.028.294h-4.592c.0467.728.2707 1.3067.672 1.736.4107.42.9427.63 1.596.63.3267 0 .6253-.0467.896-.14.28-.1027.546-.2333.798-.392l.406.756c-.2987.1867-.63.35-.994.49s-.7793.21-1.246.21zm-2.142-4.116h3.64c0-.6907-.1493-1.2133-.448-1.568-.2893-.364-.7-.546-1.232-.546-.2427 0-.476.0467-.7.14-.2147.0933-.4107.2333-.588.42-.1773.1773-.3267.3967-.448.658-.112.2613-.1867.56-.224.896zm5.9293 3.948v-6.804h.952l.098.98h.042c.3267-.3267.6673-.5973 1.022-.812.364-.224.784-.336 1.26-.336.7187 0 1.2413.224 1.568.672.336.448.504 1.1107.504 1.988v4.312h-1.148v-4.158c0-.644-.1027-1.106-.308-1.386-.2053-.2893-.532-.434-.98-.434-.3547 0-.6673.0887-.938.266s-.5787.4387-.924.784v4.928zm9.771 0v-9.184h2.618c.5133 0 .98.0467 1.4.14.4293.0933.7933.2473 1.092.462.2986.2053.532.4807.7.826s.252.77.252 1.274c0 .4853-.084.9053-.252 1.26-.1587.3547-.3874.6487-.686.882-.2987.2333-.658.4107-1.078.532-.4107.112-.868.168-1.372.168h-1.512v3.64zm1.162-4.592h1.372c.8026 0 1.3953-.1493 1.778-.448.392-.308.588-.7887.588-1.442 0-.6627-.2054-1.12-.616-1.372-.4014-.2613-1.0034-.392-1.806-.392h-1.316zm8.5599 4.76c-.42 0-.8214-.0793-1.204-.238-.3734-.1587-.7047-.3873-.994-.686-.2894-.308-.5227-.6813-.7-1.12-.168-.448-.252-.952-.252-1.512 0-.5693.084-1.0733.252-1.512.1773-.448.4106-.826.7-1.134.2893-.308.6206-.5413.994-.7.3826-.1587.784-.238 1.204-.238s.8166.0793 1.19.238c.3826.1587.7186.392 1.008.7.2893.308.518.686.686 1.134.1773.4387.266.9427.266 1.512 0 .56-.0887 1.064-.266 1.512-.168.4387-.3967.812-.686 1.12-.2894.2987-.6254.5273-1.008.686-.3734.1587-.77.238-1.19.238zm0-.952c.2893 0 .5553-.0607.798-.182.2426-.1307.448-.308.616-.532.1773-.2333.3126-.5087.406-.826.0933-.3173.14-.672.14-1.064s-.0467-.7467-.14-1.064c-.0934-.3267-.2287-.6067-.406-.84-.168-.2333-.3734-.4107-.616-.532-.2427-.1307-.5087-.196-.798-.196-.2894 0-.5554.0653-.798.196-.2427.1213-.4527.2987-.63.532-.168.2333-.2987.5133-.392.84-.0934.3173-.14.672-.14 1.064s.0466.7467.14 1.064c.0933.3173.224.5927.392.826.1773.224.3873.4013.63.532.2426.1213.5086.182.798.182zm4.5419.784v-6.804h1.148v6.804zm.588-8.204c-.224 0-.4154-.07-.574-.21-.1494-.14-.224-.3173-.224-.532 0-.224.0746-.4013.224-.532.1586-.14.35-.21.574-.21s.4106.07.56.21c.1586.1307.238.308.238.532 0 .2147-.0794.392-.238.532-.1494.14-.336.21-.56.21zm2.4573 8.204v-6.804h.952l.098.98h.042c.3266-.3267.6673-.5973 1.022-.812.364-.224.784-.336 1.26-.336.7186 0 1.2413.224 1.568.672.336.448.5041 1.1107.5041 1.988v4.312h-1.1481v-4.158c0-.644-.1027-1.106-.308-1.386-.2054-.2893-.532-.434-.98-.434-.3547 0-.6674.0887-.938.266-.2707.1773-.5787.4387-.924.784v4.928zm9.3981.168c-.364 0-.672-.056-.924-.168-.243-.112-.443-.266-.602-.462-.149-.196-.257-.434-.322-.714s-.098-.588-.098-.924v-3.766h-1.008v-.868l1.064-.07.14-1.904h.966v1.904h1.834v.938h-1.834v3.78c0 .42.075.7467.224.98.159.224.434.336.826.336.121 0 .252-.0187.392-.056s.266-.0793.378-.126l.224.868c-.187.0653-.392.1213-.616.168-.215.056-.429.084-.644.084z" fill="#1b1e29"/><path d="m18 36 83.5.5" stroke="#047dbc" stroke-linecap="square" stroke-width="4"/><rect fill="#047dbc" height="16" rx="8" stroke="#fff" stroke-width="3" transform="matrix(.70710678 -.70710678 .70710678 .70710678 -11.104076 45.192388)" width="16" x="49" y="36"/></svg>