<svg viewBox="0 0 160 160" xmlns="http://www.w3.org/2000/svg"><circle cx="80" cy="80" fill="#00518b" r="80"/><path d="m116.19 27a64.12 64.12 0 1 0 19.27 20.71" fill="none" stroke="#f5f5f5" stroke-linecap="round" stroke-linejoin="round" stroke-width="2"/><circle cx="125.55" cy="36.99" fill="#047dbc" r="9.2" stroke="#f5f5f5" stroke-miterlimit="10" stroke-width="2"/><path d="m126 33.61v3.33h3.2v.85h-3.2v3.35h-.9v-3.35h-3.2v-.85h3.2v-3.33z" fill="#047dbc" stroke="#f5f5f5" stroke-linecap="round" stroke-linejoin="round" stroke-width="2"/><path d="m124.41 101.33c7.07-8.16 9.38-22.86 5.46-31.63" fill="none" stroke="#62a9dd" stroke-linecap="round" stroke-linejoin="round" stroke-width="2"/><path d="m47.53 37.91c-10.54 4.17-20 23.5-18.78 38.76" fill="none" stroke="#62a9dd" stroke-linecap="round" stroke-linejoin="round" stroke-width="2"/><path d="m56.21 44.55h49.44v72.04h-49.44z" fill="#0d123e"/><path d="m55.2 44.55h48.2v72.77h-48.2z" fill="#047dbc"/><path d="m64.05 48.76h35.55v15.13h-35.55z" fill="#969696"/><path d="m60.04 70.83h7.57v6.31h-7.57z" fill="#213469"/><path d="m75.4 70.83h7.57v6.31h-7.57z" fill="#213469"/><path d="m90.53 70.83h7.57v6.31h-7.57z" fill="#213469"/><path d="m60.27 85.96h7.57v6.31h-7.57z" fill="#213469"/><path d="m75.24 85.85h7.57v6.31h-7.57z" fill="#213469"/><path d="m60.27 101.1h7.57v6.31h-7.57z" fill="#213469"/><path d="m75.4 101.1h7.57v6.31h-7.57z" fill="#213469"/><path d="m91.22 85.96h6.31v20.81h-6.31z" fill="#213469"/><g fill="#f5f5f5"><path d="m69.07 79h-7.56a1.26 1.26 0 0 1 -1.26-1.27v-7.54a1.25 1.25 0 0 1 1.26-1.26h7.56a1.25 1.25 0 0 1 1.26 1.26v7.56a1.26 1.26 0 0 1 -1.26 1.25zm-6.3-2.53h5v-5h-5z"/><path d="m84.21 79h-7.57a1.26 1.26 0 0 1 -1.26-1.27v-7.54a1.25 1.25 0 0 1 1.26-1.26h7.57a1.26 1.26 0 0 1 1.26 1.26v7.56a1.27 1.27 0 0 1 -1.26 1.25zm-6.31-2.51h5v-5h-5z"/><path d="m99.34 79h-7.57a1.27 1.27 0 0 1 -1.26-1.27v-7.54a1.26 1.26 0 0 1 1.26-1.26h7.57a1.26 1.26 0 0 1 1.26 1.26v7.56a1.27 1.27 0 0 1 -1.26 1.25zm-6.34-2.51h5v-5h-5z"/><path d="m69.07 94.15h-7.56a1.26 1.26 0 0 1 -1.26-1.26v-7.57a1.25 1.25 0 0 1 1.26-1.26h7.56a1.25 1.25 0 0 1 1.26 1.26v7.57a1.26 1.26 0 0 1 -1.26 1.26zm-6.3-2.52h5v-5h-5z"/><path d="m84.21 94.15h-7.57a1.26 1.26 0 0 1 -1.26-1.26v-7.57a1.25 1.25 0 0 1 1.26-1.26h7.57a1.26 1.26 0 0 1 1.26 1.26v7.57a1.27 1.27 0 0 1 -1.26 1.26zm-6.31-2.52h5v-5h-5z"/><path d="m69.07 109.28h-7.56a1.25 1.25 0 0 1 -1.26-1.28v-7.57a1.26 1.26 0 0 1 1.26-1.26h7.56a1.26 1.26 0 0 1 1.26 1.26v7.57a1.25 1.25 0 0 1 -1.26 1.26zm-6.3-2.52h5v-5.05h-5z"/><path d="m84.21 109.28h-7.57a1.25 1.25 0 0 1 -1.26-1.28v-7.57a1.26 1.26 0 0 1 1.26-1.26h7.57a1.27 1.27 0 0 1 1.26 1.26v7.57a1.26 1.26 0 0 1 -1.26 1.26zm-6.31-2.52h5v-5.05h-5z"/><path d="m101.86 118.11h-42.86a6.31 6.31 0 0 1 -6.3-6.31v-36.57a1.26 1.26 0 1 1 2.52 0v36.57a3.79 3.79 0 0 0 3.78 3.79h42.88a3.79 3.79 0 0 0 3.78-3.79v-7.56a1.27 1.27 0 0 1 2.53 0v7.56a6.33 6.33 0 0 1 -6.31 6.31z"/><path d="m106.9 100.45a1.26 1.26 0 0 1 -1.26-1.26v-50.44a3.78 3.78 0 0 0 -3.78-3.75h-42.86a3.78 3.78 0 0 0 -3.78 3.78v21.41a1.26 1.26 0 0 1 -2.52 0v-21.44a6.3 6.3 0 0 1 6.3-6.3h42.88a6.31 6.31 0 0 1 6.31 6.3v50.44a1.26 1.26 0 0 1 -1.27 1.26z"/><path d="m99.34 65.14h-37.83a1.25 1.25 0 0 1 -1.26-1.26v-15.13a1.25 1.25 0 0 1 1.26-1.26h5a1.26 1.26 0 1 1 0 2.52h-3.74v12.61h35.31v-12.62h-26.49a1.26 1.26 0 0 1 0-2.52h27.75a1.26 1.26 0 0 1 1.26 1.26v15.14a1.26 1.26 0 0 1 -1.26 1.26z"/><path d="m99.34 109.28h-7.57a1.26 1.26 0 0 1 -1.26-1.28v-13.85a1.26 1.26 0 1 1 2.52 0v12.61h5v-20.18h-5.03v2.52a1.26 1.26 0 1 1 -2.52 0v-3.78a1.26 1.26 0 0 1 1.26-1.26h7.57a1.26 1.26 0 0 1 1.26 1.26v22.68a1.26 1.26 0 0 1 -1.26 1.26z"/><path d="m32.11 102.76v-2a5.65 5.65 0 0 1 -3-.86l.47-1.31a5.19 5.19 0 0 0 2.81.84c1.39 0 2.32-.8 2.32-1.91s-.76-1.74-2.2-2.32c-2-.78-3.22-1.68-3.22-3.38a3.2 3.2 0 0 1 2.94-3.14v-2h1.21v1.89a5.24 5.24 0 0 1 2.54.68l-.48 1.35a4.77 4.77 0 0 0 -2.5-.66c-1.5 0-2.07.9-2.07 1.68 0 1 .73 1.52 2.43 2.22 2 .82 3 1.84 3 3.57a3.39 3.39 0 0 1 -3.08 3.32v2z" stroke="#f5f5f5" stroke-linecap="round" stroke-linejoin="round"/></g></svg>