<svg fill="none" height="53" viewBox="0 0 120 53" width="120" xmlns="http://www.w3.org/2000/svg"><rect height="52" rx="7.5" stroke="#c5c5c5" width="119" x=".5" y=".5"/><path d="m22.62 22v-11.808h6.804v1.26h-5.31v3.996h4.5v1.26h-4.5v5.292zm8.3505 0v-8.748h1.476v8.748zm.756-10.548c-.288 0-.534-.09-.738-.27-.192-.18-.288-.408-.288-.684 0-.288.096-.516.288-.684.204-.18.45-.27.738-.27s.528.09.72.27c.204.168.306.396.306.684 0 .276-.102.504-.306.684-.192.18-.432.27-.72.27zm2.0497 10.548 2.862-4.572-2.646-4.176h1.602l1.17 1.926c.132.24.27.486.414.738.144.24.294.48.45.72h.072c.132-.24.264-.48.396-.72.132-.252.264-.498.396-.738l1.062-1.926h1.548l-2.646 4.338 2.844 4.41h-1.602l-1.278-2.034c-.156-.264-.312-.528-.468-.792s-.318-.522-.486-.774h-.072c-.156.252-.306.51-.45.774-.144.252-.288.516-.432.792l-1.188 2.034zm12.1044.216c-.588 0-1.14-.102-1.656-.306-.504-.216-.948-.516-1.332-.9-.372-.396-.666-.876-.882-1.44s-.324-1.206-.324-1.926.108-1.362.324-1.926c.228-.576.522-1.062.882-1.458.372-.396.792-.696 1.26-.9.468-.216.954-.324 1.458-.324.552 0 1.044.096 1.476.288.444.192.81.468 1.098.828.3.36.528.792.684 1.296s.234 1.068.234 1.692c0 .156-.006.312-.018.468 0 .144-.012.27-.036.378h-5.904c.06.936.348 1.68.864 2.232.528.54 1.212.81 2.052.81.42 0 .804-.06 1.152-.18.36-.132.702-.3 1.026-.504l.522.972c-.384.24-.81.45-1.278.63s-1.002.27-1.602.27zm-2.754-5.292h4.68c0-.888-.192-1.56-.576-2.016-.372-.468-.9-.702-1.584-.702-.312 0-.612.06-.9.18-.276.12-.528.3-.756.54-.228.228-.42.51-.576.846-.144.336-.24.72-.288 1.152zm10.7257 5.292c-1.104 0-1.986-.396-2.646-1.188-.648-.792-.972-1.92-.972-3.384 0-.708.102-1.344.306-1.908.216-.576.498-1.062.846-1.458s.75-.702 1.206-.918.936-.324 1.44-.324.942.09 1.314.27.75.426 1.134.738l-.072-1.494v-3.366h1.494v12.816h-1.224l-.126-1.026h-.054c-.348.336-.75.63-1.206.882-.444.24-.924.36-1.44.36zm.324-1.242c.408 0 .792-.096 1.152-.288.36-.204.72-.51 1.08-.918v-4.572c-.372-.336-.732-.57-1.08-.702-.336-.144-.684-.216-1.044-.216-.348 0-.678.084-.99.252-.3.156-.564.384-.792.684-.228.288-.408.636-.54 1.044s-.198.864-.198 1.368c0 1.056.21 1.878.63 2.466s1.014.882 1.782.882zm14.0839 1.242c-.744 0-1.428-.138-2.052-.414s-1.17-.672-1.638-1.188c-.456-.528-.816-1.17-1.08-1.926-.252-.768-.378-1.632-.378-2.592 0-.948.132-1.8.396-2.556s.63-1.398 1.098-1.926 1.02-.93 1.656-1.206c.636-.288 1.332-.432 2.088-.432.72 0 1.35.15 1.89.45.552.288 1.002.624 1.35 1.008l-.81.972c-.312-.336-.666-.606-1.062-.81s-.846-.306-1.35-.306c-.564 0-1.074.114-1.53.342-.456.216-.846.534-1.17.954-.324.408-.576.906-.756 1.494-.168.588-.252 1.248-.252 1.98 0 .744.084 1.416.252 2.016.18.588.426 1.092.738 1.512s.69.744 1.134.972c.456.228.966.342 1.53.342.576 0 1.08-.114 1.512-.342.432-.24.84-.57 1.224-.99l.828.936c-.468.54-.996.96-1.584 1.26s-1.266.45-2.034.45zm8.6772 0c-.54 0-1.056-.102-1.548-.306-.48-.204-.906-.498-1.278-.882-.372-.396-.672-.876-.9-1.44-.216-.576-.324-1.224-.324-1.944 0-.732.108-1.38.324-1.944.228-.576.528-1.062.9-1.458s.798-.696 1.278-.9c.492-.204 1.008-.306 1.548-.306s1.05.102 1.53.306c.492.204.924.504 1.296.9s.666.882.882 1.458c.228.564.342 1.212.342 1.944 0 .72-.114 1.368-.342 1.944-.216.564-.51 1.044-.882 1.44-.372.384-.804.678-1.296.882-.48.204-.99.306-1.53.306zm0-1.224c.372 0 .714-.078 1.026-.234.312-.168.576-.396.792-.684.228-.3.402-.654.522-1.062s.18-.864.18-1.368-.06-.96-.18-1.368c-.12-.42-.294-.78-.522-1.08-.216-.3-.48-.528-.792-.684-.312-.168-.654-.252-1.026-.252s-.714.084-1.026.252c-.312.156-.582.384-.81.684-.216.3-.384.66-.504 1.08-.12.408-.18.864-.18 1.368s.06.96.18 1.368.288.762.504 1.062c.228.288.498.516.81.684.312.156.654.234 1.026.234zm8.2398 1.224c-.624 0-1.218-.114-1.782-.342s-1.056-.516-1.476-.864l.738-.99c.384.312.774.564 1.17.756.408.192.876.288 1.404.288.576 0 1.008-.132 1.296-.396s.432-.588.432-.972c0-.228-.06-.426-.18-.594s-.276-.312-.468-.432c-.18-.132-.39-.246-.63-.342s-.48-.192-.72-.288c-.312-.108-.624-.228-.936-.36-.312-.144-.594-.312-.846-.504-.24-.204-.438-.438-.594-.702s-.234-.582-.234-.954c0-.348.066-.672.198-.972.144-.312.342-.576.594-.792.264-.228.582-.402.954-.522.372-.132.792-.198 1.26-.198.552 0 1.056.096 1.512.288.468.192.87.426 1.206.702l-.702.936c-.3-.228-.612-.414-.936-.558s-.678-.216-1.062-.216c-.552 0-.96.126-1.224.378-.252.252-.378.546-.378.882 0 .204.054.384.162.54.108.144.252.276.432.396.18.108.384.21.612.306.24.084.486.174.738.27.312.12.624.246.936.378.324.132.612.3.864.504.252.192.456.432.612.72.168.288.252.636.252 1.044 0 .36-.072.696-.216 1.008-.132.312-.336.588-.612.828-.264.24-.6.426-1.008.558-.396.144-.852.216-1.368.216zm7.2575 0c-.468 0-.864-.072-1.188-.216-.312-.144-.57-.342-.774-.594-.192-.252-.33-.558-.414-.918s-.126-.756-.126-1.188v-4.842h-1.296v-1.116l1.368-.09.18-2.448h1.242v2.448h2.358v1.206h-2.358v4.86c0 .54.096.96.288 1.26.204.288.558.432 1.062.432.156 0 .324-.024.504-.072s.342-.102.486-.162l.288 1.116c-.24.084-.504.156-.792.216-.276.072-.552.108-.828.108zm5.0382 0c-.624 0-1.218-.114-1.782-.342s-1.056-.516-1.476-.864l.738-.99c.384.312.774.564 1.17.756.408.192.876.288 1.404.288.576 0 1.008-.132 1.296-.396s.432-.588.432-.972c0-.228-.06-.426-.18-.594s-.276-.312-.468-.432c-.18-.132-.39-.246-.63-.342s-.48-.192-.72-.288c-.312-.108-.624-.228-.936-.36-.312-.144-.594-.312-.846-.504-.24-.204-.438-.438-.594-.702s-.234-.582-.234-.954c0-.348.066-.672.198-.972.144-.312.342-.576.594-.792.264-.228.582-.402.954-.522.372-.132.792-.198 1.26-.198.552 0 1.056.096 1.512.288.468.192.8701.426 1.2061.702l-.7021.936c-.3-.228-.612-.414-.936-.558s-.678-.216-1.062-.216c-.552 0-.96.126-1.224.378-.252.252-.378.546-.378.882 0 .204.054.384.162.54.108.144.252.276.432.396.18.108.384.21.612.306.24.084.486.174.738.27.312.12.624.246.936.378.324.132.612.3.864.504.2521.192.4561.432.6121.72.168.288.252.636.252 1.044 0 .36-.072.696-.216 1.008-.132.312-.336.588-.6121.828-.264.24-.6.426-1.008.558-.396.144-.852.216-1.368.216z" fill="#1b1e29"/><path d="m18 36 83.5.5" stroke="#930000" stroke-linecap="square" stroke-width="2"/><path clip-rule="evenodd" d="m60 30 5 10h-10z" fill="#930000" fill-rule="evenodd"/></svg>