<svg fill="none" height="73" viewBox="0 0 73 73" width="73" xmlns="http://www.w3.org/2000/svg"><g clip-rule="evenodd" fill-rule="evenodd"><path d="m60.1079 60.9307h-47.9149v-6.8248h-4.06995v10.8941h51.98485z" fill="#b8252b"/><path d="m8.19348 19.8947h4.06992v-6.8248h47.8915v6.8248h4.0699v-10.8941h-56.03132z" fill="#002e6d"/><path d="m4.91475 42.0225c.03433 1.4169.71716 4.1115 5.18755 4.1115 2.423 0 5.1195-.6027 5.1195-3.298 0-1.9852-1.8426-2.5157-4.4361-3.154l-2.62776-.6395c-3.96035-.9568-7.782198-1.8775-7.782198-7.4793 0-2.8355 1.467438-7.8322 9.419438-7.8322 7.50822 0 9.52182 5.1026 9.55672 8.2224h-4.9147c-.1373-1.1339-.5462-3.8279-5.01776-3.8279-1.94555 0-4.26503.7449-4.26503 3.0481 0 1.9853 1.5692 2.4116 2.59286 2.6585l5.97273 1.5258c3.3449.8503 6.4165 2.2671 6.4165 6.8393 0 7.6581-7.5094 8.3313-9.6585 8.3313-8.94131 0-10.478-5.3519-10.478-8.506z" fill="#002e6d"/><path d="m64.1538 60.9066-4.0459 4.0934v-15.0736h4.0459z" fill="#002e6d"/><path d="m60.1079 60.9307h-47.9149v-6.8248h-4.06995v10.8941h51.98485z" fill="#b8252b"/><g fill="#002e6d"><path d="m8.19348 19.8947h4.06992v-6.8248h47.8915v6.8248h4.0699v-10.8941h-56.03132z"/><path d="m4.91475 42.0225c.03433 1.4169.71716 4.1115 5.18755 4.1115 2.423 0 5.1195-.6027 5.1195-3.298 0-1.9852-1.8426-2.5157-4.4361-3.154l-2.62776-.6395c-3.96035-.9568-7.782198-1.8775-7.782198-7.4793 0-2.8355 1.467438-7.8322 9.419438-7.8322 7.50822 0 9.52182 5.1026 9.55672 8.2224h-4.9147c-.1373-1.1339-.5462-3.8279-5.01776-3.8279-1.94555 0-4.26503.7449-4.26503 3.0481 0 1.9853 1.5692 2.4116 2.59286 2.6585l5.97273 1.5258c3.3449.8503 6.4165 2.2671 6.4165 6.8393 0 7.6581-7.5094 8.3313-9.6585 8.3313-8.94131 0-10.478-5.3519-10.478-8.506z"/><path d="m31.7159 45.4602h6.5225c2.588 0 4.0771-1.1344 4.0771-3.7231 0-2.2316-1.9154-3.0848-3.8296-3.0848h-6.77zm0-11.0958h6.2395c2.0906 0 3.758-.8147 3.758-2.8361 0-2.0925-1.4897-2.7302-3.9007-2.7302h-6.0968zm-5.1038-9.9608h12.3699c6.2395 0 7.834 3.8995 7.834 6.5231 0 3.6496-2.0551 4.6793-3.1191 5.2098 3.1191 1.1706 3.9356 3.6509 3.9356 6.169 0 2.0203-.8514 3.9345-2.1978 5.246-1.4536 1.4168-2.8367 2.3038-8.0466 2.3038h-10.776z"/><path d="m64.1844 24.3952h-4.038l-8.0839 25.4679h5.1038l4.9533-16.7199 5.0346 16.7199h5.1038z"/><path d="m64.1538 60.9066-4.0459 4.0934v-15.0736h4.0459z"/></g></g></svg>