<svg fill="none" height="56" viewBox="0 0 206 56" width="206" xmlns="http://www.w3.org/2000/svg"><g clip-rule="evenodd" fill-rule="evenodd"><g fill="#002e6d"><path d="m87.1572 15.2808h1.1905v5.5518c0 .5642.0578 1.0369.1728 1.4199.115.3823.2704.6888.4661.9171.1957.23.4275.395.696.4955.2674.1006.554.1506.8599.1506.3161 0 .6076-.05.8755-.1506.2674-.1005.5016-.2655.7028-.4955.2011-.2283.3582-.5348.4732-.9171.1151-.383.1723-.8557.1723-1.4199v-5.5518h1.1477v5.5229c0 .7557-.0868 1.391-.2584 1.9076-.1722.5161-.4088.934-.7105 1.2555-.3005.3203-.6569.5498-1.0682.6883-.4119.1378-.8557.2077-1.3344.2077-.4781 0-.9249-.0699-1.341-.2077-.4161-.1385-.7743-.368-1.076-.6883-.3005-.3215-.5371-.7394-.7093-1.2555-.1729-.5166-.259-1.1519-.259-1.9076z"/><path d="m94.7888 23.9734c0-.2776.0831-.4998.2511-.6666.1668-.1674.3697-.2517.6088-.2517.23 0 .4281.0843.5961.2517.1668.1668.2511.389.2511.6666 0 .2583-.0843.4715-.2511.6389-.168.1662-.3661.2505-.5961.2505-.2391 0-.442-.0843-.6088-.2505-.168-.1674-.2511-.3806-.2511-.6389z"/><path d="m98.5323 22.6397c.3342.3534.7286.6382 1.1833.8532.4544.215.9244.3228 1.4124.3228.622 0 1.105-.1415 1.449-.4234.345-.2812.517-.6521.517-1.1109 0-.2397-.041-.4432-.122-.61-.081-.1674-.191-.3107-.329-.4305-.14-.1199-.304-.227-.496-.3234-.191-.0945-.397-.1951-.617-.3005l-1.348-.5877c-.2201-.0963-.4447-.2107-.6736-.345-.23-.1337-.4359-.2963-.6172-.4871-.1824-.1915-.3306-.4191-.445-.6823-.1144-.2631-.1722-.5666-.1722-.9104 0-.3535.0741-.6841.2228-.9894.1475-.3058.3535-.5714.6166-.7972.2632-.224.5739-.3986.9326-.5227.358-.124.753-.1866 1.183-.1866.565 0 1.085.1071 1.564.3227.478.215.884.495 1.219.8388l-.646.775c-.287-.277-.604-.495-.953-.6528-.349-.1577-.743-.2366-1.184-.2366-.527 0-.949.1222-1.269.3655-.3209.2445-.4805.5811-.4805 1.011 0 .23.0446.4233.1355.5817.0909.1578.2132.2963.3661.4155.1529.1204.3199.2252.5019.3161s.368.1746.559.2511l1.334.5733c.268.115.522.2468.761.3944.238.1487.444.3209.616.5166.173.1963.309.4257.409.6883.101.2637.152.5672.152.9116 0 .3728-.075.722-.223 1.0466-.148.3251-.361.6099-.638.8532-.278.2439-.613.436-1.005.5745-.392.1378-.836.2077-1.334.2077-.66 0-1.2714-.1246-1.8356-.3727-.5648-.2487-1.0519-.5883-1.4632-1.0189z"/><path d="m105.59 23.9734c0-.2776.084-.4998.251-.6666.168-.1674.37-.2517.609-.2517.23 0 .429.0843.596.2517.168.1668.251.389.251.6666 0 .2583-.083.4715-.251.6389-.167.1662-.366.2505-.596.2505-.239 0-.441-.0843-.609-.2505-.167-.1674-.251-.3806-.251-.6389z"/><path d="m112.877 22.6397c.334.3534.729.6382 1.184.8532.454.215.925.3228 1.412.3228.622 0 1.105-.1415 1.449-.4234.345-.2812.516-.6521.516-1.1109 0-.2397-.04-.4432-.121-.61-.082-.1674-.192-.3107-.33-.4305-.139-.1199-.304-.227-.495-.3234-.192-.0945-.397-.1951-.617-.3005l-1.348-.5877c-.221-.0963-.445-.2107-.675-.345-.229-.1337-.436-.2963-.616-.4871-.182-.1915-.33-.4191-.445-.6823-.115-.2631-.172-.5666-.172-.9104 0-.3535.074-.6841.222-.9894.148-.3058.353-.5714.617-.7972.263-.224.574-.3986.932-.5227.359-.124.753-.1866 1.183-.1866.565 0 1.086.1071 1.564.3227.478.215.885.495 1.22.8388l-.646.775c-.287-.277-.605-.495-.954-.6528-.349-.1577-.743-.2366-1.184-.2366-.526 0-.949.1222-1.268.3655-.321.2445-.481.5811-.481 1.011 0 .23.045.4233.136.5817.091.1578.213.2963.366.4155.153.1204.32.2252.501.3161.182.0909.369.1746.56.2511l1.334.5733c.268.115.522.2468.76.3944.24.1487.446.3209.617.5166.172.1963.308.4257.408.6883.101.2637.152.5672.152.9116 0 .3728-.074.722-.223 1.0466-.148.3251-.36.6099-.638.8532-.277.2439-.612.436-1.004.5745-.392.1378-.837.2077-1.334.2077-.66 0-1.272-.1246-1.836-.3727-.564-.2487-1.052-.5883-1.464-1.0189z"/><path d="m120.752 17.7195h.975l.101 1.0044h.043c.305-.3348.638-.6148.997-.84.358-.224.748-.3372 1.169-.3372.535 0 .954.1174 1.254.3516.302.2349.524.5624.668.9821.363-.401.729-.7238 1.098-.9676.367-.2433.766-.3661 1.197-.3661.716 0 1.25.2294 1.599.6888.349.4595.523 1.1387.523 2.0371v4.418h-1.176v-4.2602c0-.66-.105-1.1357-.315-1.4277-.211-.2909-.536-.4372-.975-.4372-.526 0-1.11.3589-1.751 1.0754v5.0497h-1.176v-4.2602c0-.66-.105-1.1357-.315-1.4277-.211-.2909-.541-.4372-.99-.4372-.527 0-1.109.3589-1.75 1.0754v5.0497h-1.176z"/><path d="m133.533 22.7974c0 .4011.118.6889.352.8611.233.171.524.2577.867.2577.335 0 .653-.0789.954-.2366.301-.1584.619-.3896.955-.6961v-1.9365c-.584.077-1.076.168-1.478.2727-.402.1054-.725.2301-.969.3728-.244.1439-.418.3083-.523.4955-.106.1861-.158.3896-.158.6094zm-1.161.0861c0-.7653.34-1.3506 1.025-1.757.683-.4065 1.772-.6913 3.264-.8539 0-.2198-.022-.4347-.066-.6455-.043-.2102-.12-.3968-.229-.5594-.11-.1626-.256-.2938-.437-.3944-.182-.1006-.417-.1505-.703-.1505-.411 0-.791.077-1.141.2294-.35.1529-.662.3251-.939.5166l-.474-.8183c.325-.2102.723-.4131 1.191-.6094.469-.1951.985-.2944 1.549-.2944.852 0 1.468.2613 1.851.7822.382.5214.574 1.2169.574 2.087v4.2747h-.976l-.1-.8322h-.029c-.335.2782-.696.5142-1.083.7105-.387.1957-.797.2939-1.226.2939-.594 0-1.084-.1722-1.471-.5166-.387-.3445-.58-.8316-.58-1.4627z"/><path d="m140.417 14.4775h1.177v8.8932c0 .1921.034.3251.1.4016.067.0765.144.115.23.115h.107c.034 0 .084-.0096.151-.0289l.158.8894c-.076.0385-.168.0674-.273.0867-.104.0181-.239.0283-.402.0283-.449 0-.769-.1343-.96-.4016-.192-.2674-.288-.66-.288-1.176z"/><path d="m144.434 14.4775h1.176v8.8932c0 .1921.034.3251.1.4016.067.0765.144.115.23.115h.108c.033 0 .083-.0096.151-.0289l.158.8894c-.078.0385-.168.0674-.273.0867-.106.0181-.239.0283-.403.0283-.449 0-.768-.1343-.959-.4016-.192-.2674-.288-.66-.288-1.176z"/><path d="m154.647 23.744c.813 0 1.444-.1505 1.894-.4516.449-.3011.674-.7726.674-1.4133 0-.5828-.22-1.0116-.66-1.2843-.441-.2716-1.075-.4083-1.908-.4083h-1.636v3.5575zm-.243-4.4469c.812 0 1.393-.1385 1.742-.4167.349-.277.523-.6786.523-1.2043 0-.516-.183-.8869-.552-1.1115-.368-.224-.92-.3372-1.657-.3372h-1.449v3.0697zm-2.582-4.0163h2.797c.478 0 .915.0433 1.312.1288.396.0861.736.2204 1.018.4023.282.1812.502.4179.66.7093.158.2927.236.6437.236 1.0544 0 .469-.133.8924-.401 1.2699-.268.3776-.679.6383-1.233.7816v.0572c.688.1054 1.224.345 1.606.7172.383.3733.575.8845.575 1.5354 0 .4583-.087.8605-.259 1.205-.173.3444-.416.6304-.732.8598-.315.23-.693.4017-1.133.5167s-.923.1722-1.448.1722h-2.998z"/><path d="m160.113 17.7195h1.191v4.2602c0 .66.102 1.1357.307 1.4271.206.292.538.4378.998.4378.363 0 .683-.0934.96-.28.278-.1867.584-.4854.919-.8966v-4.9485h1.176v6.9711h-.975l-.101-1.0899h-.043c-.325.3824-.667.6889-1.025.9177-.359.2294-.782.3444-1.27.3444-.746 0-1.289-.2294-1.628-.6889-.34-.4588-.509-1.1374-.509-2.0358z"/><path d="m168.189 23.1129c.306.2487.619.4499.94.6022.319.1535.69.2294 1.111.2294.459 0 .803-.1048 1.032-.3149.23-.2108.345-.4691.345-.775 0-.1818-.048-.3396-.144-.4733-.095-.1342-.217-.2511-.365-.3516-.149-.1-.318-.1891-.51-.2656-.191-.0764-.383-.1529-.573-.2288-.249-.0861-.498-.1842-.746-.2944-.249-.1096-.471-.2439-.668-.4017-.196-.1577-.355-.3414-.48-.5527-.125-.2096-.186-.4631-.186-.7594 0-.2775.055-.5383.164-.7822.11-.2444.269-.454.474-.631s.456-.3155.753-.4161.631-.1511 1.004-.1511c.44 0 .844.0764 1.212.2294.368.1535.686.3402.954.56l-.559.7455c-.239-.1813-.487-.3294-.746-.4444-.258-.1144-.54-.1723-.846-.1723-.441 0-.763.1006-.969.3017-.205.2005-.308.4354-.308.7027 0 .162.043.3035.129.4227.086.1199.201.2252.345.3156.143.0915.308.1728.494.2444.187.0717.38.1458.581.2222.248.0958.5.1963.753.3011.254.1054.481.2367.682.3944.201.1578.365.3517.495.5811.129.23.193.507.193.8322 0 .286-.054.5546-.164.8032-.111.2487-.273.4685-.489.66-.215.1909-.482.342-.803.451-.32.1102-.686.1656-1.097.1656-.498 0-.971-.0909-1.42-.2728-.45-.1812-.842-.4106-1.177-.6882z"/><path d="m174.744 24.6906h1.176v-6.9711h-1.176zm.602-8.406c-.23 0-.423-.0717-.581-.215s-.236-.3252-.236-.5456c0-.2288.078-.4124.236-.5515.158-.1385.351-.209.581-.209s.423.0705.581.209c.158.1391.236.3227.236.5515 0 .2204-.078.4023-.236.5456s-.351.215-.581.215z"/><path d="m178.631 17.7195h.976l.1 1.0044h.043c.335-.3348.686-.6148 1.054-.84.369-.224.797-.3372 1.284-.3372.737 0 1.274.2294 1.614.6888.339.4595.509 1.1387.509 2.0371v4.418h-1.176v-4.2602c0-.66-.105-1.1357-.316-1.4277-.211-.2909-.545-.4372-1.004-.4372-.363 0-.684.0909-.961.2722-.277.1824-.593.4504-.946.8032v5.0497h-1.177z"/><path d="m191.197 20.6887c0-.7172-.151-1.2645-.452-1.6421-.301-.3781-.724-.5672-1.27-.5672-.248 0-.485.05-.71.1505-.224.1006-.428.2445-.61.4306-.181.186-.331.4161-.451.6888-.12.2722-.199.5853-.237.9394zm-4.877.5305c0-.5739.088-1.0875.265-1.5415.177-.4546.412-.84.703-1.1549.291-.3162.624-.557.997-.7244s.76-.2517 1.162-.2517c.439 0 .834.0764 1.183.2294.349.1535.641.3733.876.6605.234.2873.412.6311.537 1.0327.124.4017.186.8509.186 1.3483 0 .2583-.014.4732-.042.6455h-4.706c.049.7557.28 1.3536.696 1.7932.416.4395.958.6599 1.629.6599.334 0 .642-.05.925-.1505.282-.1006.552-.2318.809-.395l.417.7749c-.306.1909-.645.3583-1.019.5016-.372.1439-.798.2156-1.276.2156-.469 0-.906-.0843-1.312-.2505-.407-.1674-.761-.4064-1.062-.7178-.301-.3107-.538-.6906-.71-1.1404-.172-.4492-.258-.9611-.258-1.5349z"/><path d="m194.123 23.1129c.305.2487.618.4499.939.6022.32.1535.691.2294 1.112.2294.459 0 .803-.1048 1.033-.3149.229-.2108.344-.4691.344-.775 0-.1818-.048-.3396-.143-.4733-.097-.1342-.219-.2511-.366-.3516-.149-.1-.319-.1891-.51-.2656-.191-.0764-.382-.1529-.574-.2288-.249-.0861-.497-.1842-.746-.2944-.248-.1096-.471-.2439-.667-.4017-.196-.1577-.356-.3414-.48-.5527-.124-.2096-.186-.4631-.186-.7594 0-.2775.054-.5383.165-.7822.109-.2444.267-.454.473-.631s.457-.3155.753-.4161.631-.1511 1.004-.1511c.44 0 .844.0764 1.212.2294.369.1535.686.3402.954.56l-.559.7455c-.24-.1813-.488-.3294-.746-.4444-.258-.1144-.54-.1723-.847-.1723-.439 0-.762.1006-.968.3017-.205.2005-.309.4354-.309.7027 0 .162.044.3035.13.4227.086.1199.201.2252.344.3156.143.0915.309.1728.495.2444.186.0717.379.1458.581.2222.248.0958.499.1963.753.3011.253.1054.48.2367.682.3944.201.1578.366.3517.494.5811.129.23.194.507.194.8322 0 .286-.055.5546-.165.8032-.11.2487-.273.4685-.488.66-.215.1909-.482.342-.803.451-.321.1102-.687.1656-1.097.1656-.498 0-.971-.0909-1.42-.2728-.451-.1812-.842-.4106-1.177-.6882z"/><path d="m200.492 23.1129c.306.2487.619.4499.94.6022.32.1535.69.2294 1.111.2294.459 0 .803-.1048 1.033-.3149.23-.2108.344-.4691.344-.775 0-.1818-.048-.3396-.143-.4733-.096-.1342-.219-.2511-.366-.3516-.149-.1-.319-.1891-.509-.2656-.192-.0764-.383-.1529-.574-.2288-.25-.0861-.498-.1842-.746-.2944-.249-.1096-.471-.2439-.667-.4017-.196-.1577-.356-.3414-.481-.5527-.124-.2096-.186-.4631-.186-.7594 0-.2775.055-.5383.165-.7822.109-.2444.268-.454.473-.631.206-.177.457-.3155.753-.4161.297-.1006.631-.1511 1.004-.1511.44 0 .844.0764 1.213.2294.368.1535.685.3402.954.56l-.56.7455c-.239-.1813-.488-.3294-.746-.4444-.258-.1144-.54-.1723-.847-.1723-.439 0-.762.1006-.968.3017-.205.2005-.308.4354-.308.7027 0 .162.043.3035.129.4227.087.1199.201.2252.344.3156.144.0915.309.1728.495.2444.186.0717.381.1458.581.2222.249.0958.5.1963.754.3011.253.1054.48.2367.681.3944.201.1578.366.3517.495.5811.128.23.194.507.194.8322 0 .286-.056.5546-.165.8032-.111.2487-.273.4685-.489.66-.214.1909-.482.342-.802.451-.321.1102-.688.1656-1.098.1656-.497 0-.971-.0909-1.42-.2728-.45-.1812-.842-.4106-1.177-.6882z"/><path d="m91.203 36.9985-.445-1.4343c-.1722-.5263-.3342-1.0495-.4871-1.571-.1541-.5209-.3071-1.0544-.46-1.5993h-.0572c-.1428.5449-.2915 1.0784-.4444 1.5993-.153.5215-.315 1.0447-.4872 1.571l-.4456 1.4343zm.3011.9611h-3.4286l-.9039 2.8692h-1.2187l3.1842-9.4098h1.3482l3.1847 9.4098h-1.2765z"/><path d="m95.965 37.3424c0 .8418.1674 1.4975.5028 1.9654.3341.4685.8074.7027 1.4192.7027.3252 0 .6317-.0783.9183-.236.2872-.1584.5739-.3993.8605-.7244v-3.6436c-.2963-.268-.5805-.4571-.8533-.5673-.2727-.1096-.5521-.1644-.8394-.1644-.277 0-.5377.0639-.7816.1933-.2438.1295-.457.3113-.6388.545-.1813.2348-.3252.5148-.4294.84-.106.3251-.1583.6882-.1583 1.0893zm-1.2194.015c0-.5648.0837-1.073.2511-1.5276.1674-.4547.3896-.84.6678-1.155.277-.3161.5967-.5594.9604-.7316.3631-.1722.7461-.2589 1.1477-.2589.4017 0 .7503.0717 1.0472.2162.2962.1433.5973.339.9038.5877l-.0578-1.1905v-2.682h1.1912v10.2131h-.9757l-.0999-.8183h-.044c-.277.268-.5949.5004-.9532.6961-.3589.1957-.7442.2944-1.1549.2944-.8797 0-1.5806-.3161-2.1021-.9471-.5209-.6311-.7816-1.5301-.7816-2.6965z"/><path d="m103.28 33.8565h.976l.1 1.0044h.044c.305-.3342.637-.6136.996-.8388.359-.224.748-.3378 1.17-.3378.534 0 .953.118 1.254.3517.302.2348.524.563.668.9827.363-.4017.729-.7238 1.097-.9683.368-.2439.767-.3661 1.197-.3661.718 0 1.251.23 1.6.6889.35.46.524 1.1386.524 2.037v4.4186h-1.176v-4.2608c0-.6594-.106-1.135-.316-1.4271-.211-.2914-.536-.4372-.975-.4372-.527 0-1.11.3577-1.751 1.0755v5.0496h-1.176v-4.2608c0-.6594-.105-1.135-.315-1.4271-.211-.2914-.54-.4372-.99-.4372-.527 0-1.109.3577-1.75 1.0755v5.0496h-1.177z"/><path d="m115.531 40.8282h1.176v-6.9717h-1.176zm.602-8.4054c-.229 0-.422-.0723-.581-.215-.158-.1433-.236-.3251-.236-.5455 0-.2294.078-.4137.236-.5516.159-.1391.352-.2089.581-.2089.23 0 .423.0698.581.2089.158.1379.236.3222.236.5516 0 .2204-.078.4022-.236.5455-.158.1427-.351.215-.581.215z"/><path d="m119.417 33.8565h.976l.101 1.0044h.043c.335-.3342.686-.6136 1.054-.8388.368-.224.796-.3378 1.283-.3378.737 0 1.275.23 1.614.6889.34.46.51 1.1386.51 2.037v4.4186h-1.176v-4.2608c0-.6594-.106-1.135-.317-1.4271-.209-.2914-.544-.4372-1.003-.4372-.364 0-.684.091-.961.2722-.277.1825-.593.4498-.947.8033v5.0496h-1.177z"/><path d="m127.622 40.8282h1.177v-6.9717h-1.177zm.603-8.4054c-.229 0-.423-.0723-.58-.215-.158-.1433-.237-.3251-.237-.5455 0-.2294.079-.4137.237-.5516.157-.1391.351-.2089.58-.2089s.423.0698.581.2089c.159.1379.236.3222.236.5516 0 .2204-.077.4022-.236.5455-.158.1427-.352.215-.581.215z"/><path d="m131.324 39.25c.306.2499.618.451.939.6027.32.1536.691.2295 1.112.2295.459 0 .803-.1048 1.033-.315.229-.2101.344-.4684.344-.7743 0-.1819-.048-.3403-.144-.4739-.096-.1337-.217-.2511-.366-.3517-.148-.0993-.318-.1885-.508-.2655-.193-.0759-.383-.153-.575-.2288-.249-.0862-.497-.1837-.745-.2939-.25-.1102-.472-.2439-.668-.4022-.195-.1578-.355-.3415-.479-.5522-.126-.2102-.188-.4631-.188-.7599 0-.2782.056-.5377.166-.7816.109-.2451.267-.454.473-.6317.206-.1764.457-.3155.753-.4161.297-.1005.632-.1511 1.004-.1511.44 0 .844.0771 1.212.23.368.153.686.3402.954.5594l-.559.7461c-.24-.1819-.488-.33-.746-.4444-.258-.115-.54-.1722-.847-.1722-.439 0-.762.1005-.968.3017-.205.1999-.308.4347-.308.7027 0 .162.042.3035.129.4227.086.1198.201.2252.344.3155.144.0915.309.1722.495.2439.186.0722.38.1457.581.2228.248.0951.499.1957.753.3011.253.1047.48.2366.681.3938.201.1583.366.3516.495.5816.13.2295.194.507.194.8322 0 .286-.055.554-.165.8033-.11.2487-.273.4678-.488.6593s-.483.3427-.802.4516c-.321.1096-.687.1656-1.098.1656-.498 0-.971-.0915-1.421-.2727-.449-.1819-.841-.4107-1.176-.6889z"/><path d="m138.08 34.8182h-1.033v-.8894l1.09-.0723.144-1.9503h.989v1.9503h1.88v.9617h-1.88v3.873c0 .4305.08.7623.236.9965.159.2355.439.3517.84.3517.124 0 .259-.0187.402-.0578.143-.0373.273-.0807.387-.1289l.23.8894c-.191.0668-.4.1271-.624.1795-.225.0523-.448.0794-.667.0794-.373 0-.686-.0578-.94-.1722-.253-.115-.459-.2734-.616-.4739-.159-.2011-.271-.445-.338-.731-.067-.2872-.1-.6021-.1-.9472z"/><path d="m143.085 33.8565h.977l.1 1.2627h.043c.238-.4389.528-.7888.868-1.0465.339-.2589.709-.3884 1.111-.3884.277 0 .526.0482.747.1445l-.23 1.0321c-.115-.0373-.221-.0662-.316-.0855-.096-.0193-.215-.0289-.359-.0289-.297 0-.604.1198-.925.3583-.32.239-.6.6557-.839 1.2482v4.4758h-1.177z"/><path d="m148.881 38.9351c0 .4016.118.6888.352.861.233.1716.523.2578.867.2578.335 0 .653-.0783.954-.2367.301-.1578.619-.3896.954-.6955v-1.9365c-.583.0765-1.076.1674-1.477.2722-.402.106-.725.23-.968.3727-.245.1433-.419.3089-.524.495-.105.1866-.158.3908-.158.61zm-1.162.0867c0-.766.341-1.3519 1.026-1.7577.683-.4065 1.772-.6913 3.263-.8539 0-.2197-.022-.4347-.064-.6455-.044-.2095-.121-.3968-.23-.5594-.111-.1625-.256-.2944-.438-.395-.181-.0999-.416-.1499-.702-.1499-.411 0-.791.0765-1.141.2294-.349.153-.662.3252-.939.5167l-.474-.8178c.325-.2101.722-.413 1.191-.6099.469-.1957.985-.2945 1.549-.2945.851 0 1.468.2613 1.851.7828.382.5209.573 1.2169.573 2.0865v4.2752h-.975l-.101-.8322h-.029c-.334.2776-.695.5143-1.082.71-.388.1957-.797.2944-1.226.2944-.594 0-1.084-.1722-1.471-.5172-.388-.3438-.581-.8316-.581-1.462z"/><path d="m155.967 34.8182h-1.032v-.8894l1.089-.0723.144-1.9503h.989v1.9503h1.88v.9617h-1.88v3.873c0 .4305.08.7623.236.9965.159.2355.439.3517.84.3517.125 0 .258-.0187.402-.0578.143-.0373.273-.0807.388-.1289l.228.8894c-.19.0668-.399.1271-.623.1795-.225.0523-.448.0794-.668.0794-.372 0-.685-.0578-.939-.1722-.253-.115-.459-.2734-.617-.4739-.158-.2011-.27-.445-.337-.731-.067-.2872-.1-.6021-.1-.9472z"/><path d="m160.973 40.8282h1.177v-6.9717h-1.177zm.603-8.4054c-.23 0-.423-.0723-.581-.215-.158-.1433-.237-.3251-.237-.5455 0-.2294.079-.4137.237-.5516.158-.1391.351-.2089.581-.2089s.423.0698.581.2089c.158.1379.236.3222.236.5516 0 .2204-.078.4022-.236.5455-.158.1427-.351.215-.581.215z"/><path d="m165.563 37.3574c0 .4011.048.7648.143 1.0893.096.3258.232.6058.41.84.176.2343.389.4155.638.545.249.1288.521.1939.817.1939.297 0 .569-.0651.818-.1939.248-.1295.461-.3107.639-.545.176-.2342.312-.5142.408-.84.096-.3245.143-.6882.143-1.0893 0-.4016-.047-.7677-.143-1.0977-.096-.3294-.232-.6142-.408-.8532-.178-.2391-.391-.4234-.639-.5522-.249-.1295-.521-.1939-.818-.1939-.296 0-.568.0644-.817.1939-.249.1288-.462.3131-.638.5522-.178.239-.314.5238-.41.8532-.095.33-.143.6961-.143 1.0977zm-1.219 0c0-.5835.089-1.1019.265-1.5565.177-.4547.414-.8394.711-1.155.295-.3155.638-.5539 1.025-.7171.387-.1626.796-.2445 1.226-.2445.431 0 .84.0819 1.227.2445.388.1632.729.4016 1.025.7171.297.3156.534.7003.711 1.155.177.4546.265.973.265 1.5565 0 .5733-.088 1.0881-.265 1.5415-.177.4541-.414.837-.711 1.1483-.296.3107-.637.5474-1.025.7094-.387.1625-.796.2444-1.227.2444-.43 0-.839-.0819-1.226-.2444-.387-.162-.73-.3987-1.025-.7094-.297-.3113-.534-.6942-.711-1.1483-.176-.4534-.265-.9682-.265-1.5415z"/><path d="m172.707 33.8565h.975l.101 1.0044h.043c.334-.3342.686-.6136 1.054-.8388.368-.224.796-.3378 1.283-.3378.737 0 1.275.23 1.614.6889.34.46.51 1.1386.51 2.037v4.4186h-1.176v-4.2608c0-.6594-.106-1.135-.316-1.4271-.211-.2914-.545-.4372-1.004-.4372-.364 0-.684.091-.961.2722-.277.1825-.593.4498-.947.8033v5.0496h-1.176z"/></g><path d="m60.1079 51.9307h-47.9149v-6.8248h-4.06995v10.8941h51.98485z" fill="#b8252b"/><path d="m8.19348 10.8947h4.06992v-6.82476h47.8915v6.82476h4.0699v-10.89409728h-56.03132z" fill="#002e6d"/><path d="m4.91475 33.0225c.03433 1.4169.71716 4.1115 5.18755 4.1115 2.423 0 5.1195-.6027 5.1195-3.298 0-1.9852-1.8426-2.5157-4.4361-3.154l-2.62776-.6395c-3.96035-.9568-7.782198-1.8775-7.782198-7.4793 0-2.8355 1.467438-7.8322 9.419438-7.8322 7.50822 0 9.52182 5.1026 9.55672 8.2224h-4.9147c-.1373-1.1339-.5462-3.8279-5.01776-3.8279-1.94555 0-4.26503.7449-4.26503 3.0481 0 1.9853 1.5692 2.4116 2.59286 2.6585l5.97273 1.5258c3.3449.8503 6.4165 2.2671 6.4165 6.8393 0 7.6581-7.5094 8.3313-9.6585 8.3313-8.94131 0-10.478-5.3519-10.478-8.506z" fill="#002e6d"/><path d="m64.1538 51.9066-4.0459 4.0934v-15.0736h4.0459z" fill="#002e6d"/><path d="m60.1079 51.9307h-47.9149v-6.8248h-4.06995v10.8941h51.98485z" fill="#b8252b"/><path d="m8.19348 10.8947h4.06992v-6.82476h47.8915v6.82476h4.0699v-10.89409728h-56.03132z" fill="#002e6d"/><path d="m4.91475 33.0225c.03433 1.4169.71716 4.1115 5.18755 4.1115 2.423 0 5.1195-.6027 5.1195-3.298 0-1.9852-1.8426-2.5157-4.4361-3.154l-2.62776-.6395c-3.96035-.9568-7.782198-1.8775-7.782198-7.4793 0-2.8355 1.467438-7.8322 9.419438-7.8322 7.50822 0 9.52182 5.1026 9.55672 8.2224h-4.9147c-.1373-1.1339-.5462-3.8279-5.01776-3.8279-1.94555 0-4.26503.7449-4.26503 3.0481 0 1.9853 1.5692 2.4116 2.59286 2.6585l5.97273 1.5258c3.3449.8503 6.4165 2.2671 6.4165 6.8393 0 7.6581-7.5094 8.3313-9.6585 8.3313-8.94131 0-10.478-5.3519-10.478-8.506z" fill="#002e6d"/><path d="m31.7159 36.4602h6.5225c2.588 0 4.0771-1.1344 4.0771-3.7231 0-2.2316-1.9154-3.0848-3.8296-3.0848h-6.77zm0-11.0958h6.2395c2.0906 0 3.758-.8147 3.758-2.8361 0-2.0925-1.4897-2.7302-3.9007-2.7302h-6.0968zm-5.1038-9.9608h12.3699c6.2395 0 7.834 3.8995 7.834 6.5231 0 3.6496-2.0551 4.6793-3.1191 5.2098 3.1191 1.1706 3.9356 3.6509 3.9356 6.169 0 2.0203-.8514 3.9345-2.1978 5.246-1.4536 1.4168-2.8367 2.3038-8.0466 2.3038h-10.776z" fill="#002e6d"/><path d="m64.1844 15.3952h-4.038l-8.0839 25.4679h5.1038l4.9533-16.7199 5.0346 16.7199h5.1038z" fill="#002e6d"/><path d="m64.1538 51.9066-4.0459 4.0934v-15.0736h4.0459z" fill="#002e6d"/></g></svg>