<svg fill="none" height="53" viewBox="0 0 120 53" width="120" xmlns="http://www.w3.org/2000/svg"><rect height="52" rx="7.5" stroke="#c5c5c5" width="119" x=".5" y=".5"/><path d="m25.068 22v-10.548h-3.564v-1.26h8.64v1.26h-3.564v10.548zm8.8651.216c-.54 0-1.056-.102-1.548-.306-.48-.204-.906-.498-1.278-.882-.372-.396-.672-.876-.9-1.44-.216-.576-.324-1.224-.324-1.944 0-.732.108-1.38.324-1.944.228-.576.528-1.062.9-1.458s.798-.696 1.278-.9c.492-.204 1.008-.306 1.548-.306s1.05.102 1.53.306c.492.204.924.504 1.296.9s.666.882.882 1.458c.228.564.342 1.212.342 1.944 0 .72-.114 1.368-.342 1.944-.216.564-.51 1.044-.882 1.44-.372.384-.804.678-1.296.882-.48.204-.99.306-1.53.306zm0-1.224c.372 0 .714-.078 1.026-.234.312-.168.576-.396.792-.684.228-.3.402-.654.522-1.062s.18-.864.18-1.368-.06-.96-.18-1.368c-.12-.42-.294-.78-.522-1.08-.216-.3-.48-.528-.792-.684-.312-.168-.654-.252-1.026-.252s-.714.084-1.026.252c-.312.156-.582.384-.81.684-.216.3-.384.66-.504 1.08-.12.408-.18.864-.18 1.368s.06.96.18 1.368.288.762.504 1.062c.228.288.498.516.81.684.312.156.654.234 1.026.234zm8.409 1.224c-.468 0-.864-.072-1.188-.216-.312-.144-.57-.342-.774-.594-.192-.252-.33-.558-.414-.918s-.126-.756-.126-1.188v-4.842h-1.296v-1.116l1.368-.09.18-2.448h1.242v2.448h2.358v1.206h-2.358v4.86c0 .54.096.96.288 1.26.204.288.558.432 1.062.432.156 0 .324-.024.504-.072s.342-.102.486-.162l.288 1.116c-.24.084-.504.156-.792.216-.276.072-.552.108-.828.108zm4.5573 0c-.732 0-1.344-.216-1.836-.648-.48-.432-.72-1.044-.72-1.836 0-.96.426-1.692 1.278-2.196.852-.516 2.214-.876 4.086-1.08 0-.276-.03-.546-.09-.81-.048-.264-.138-.498-.27-.702s-.318-.366-.558-.486c-.228-.132-.522-.198-.882-.198-.504 0-.978.096-1.422.288s-.84.408-1.188.648l-.576-1.026c.408-.264.906-.516 1.494-.756.588-.252 1.236-.378 1.944-.378 1.068 0 1.842.33 2.322.99.48.648.72 1.518.72 2.61v5.364h-1.224l-.126-1.044h-.054c-.42.348-.87.648-1.35.9-.48.24-.996.36-1.548.36zm.432-1.188c.42 0 .816-.096 1.188-.288.372-.204.768-.498 1.188-.882v-2.43c-.732.096-1.35.21-1.854.342-.492.132-.894.288-1.206.468-.3.18-.522.39-.666.63-.132.228-.198.48-.198.756 0 .504.15.864.45 1.08s.666.324 1.098.324zm7.7883 1.188c-.564 0-.966-.168-1.206-.504s-.36-.828-.36-1.476v-11.052h1.476v11.16c0 .24.042.408.126.504s.18.144.288.144h.126c.048 0 .114-.012.198-.036l.198 1.116c-.096.048-.21.084-.342.108s-.3.036-.504.036zm10.4334 0c-.744 0-1.428-.138-2.052-.414s-1.17-.672-1.638-1.188c-.456-.528-.816-1.17-1.08-1.926-.252-.768-.378-1.632-.378-2.592 0-.948.132-1.8.396-2.556s.63-1.398 1.098-1.926 1.02-.93 1.656-1.206c.636-.288 1.332-.432 2.088-.432.72 0 1.35.15 1.89.45.552.288 1.002.624 1.35 1.008l-.81.972c-.312-.336-.666-.606-1.062-.81s-.846-.306-1.35-.306c-.564 0-1.074.114-1.53.342-.456.216-.846.534-1.17.954-.324.408-.576.906-.756 1.494-.168.588-.252 1.248-.252 1.98 0 .744.084 1.416.252 2.016.18.588.426 1.092.738 1.512s.69.744 1.134.972c.456.228.966.342 1.53.342.576 0 1.08-.114 1.512-.342.432-.24.84-.57 1.224-.99l.828.936c-.468.54-.996.96-1.584 1.26s-1.266.45-2.034.45zm8.6772 0c-.54 0-1.056-.102-1.548-.306-.48-.204-.906-.498-1.278-.882-.372-.396-.672-.876-.9-1.44-.216-.576-.324-1.224-.324-1.944 0-.732.108-1.38.324-1.944.228-.576.528-1.062.9-1.458s.798-.696 1.278-.9c.492-.204 1.008-.306 1.548-.306s1.05.102 1.53.306c.492.204.924.504 1.296.9s.666.882.882 1.458c.228.564.342 1.212.342 1.944 0 .72-.114 1.368-.342 1.944-.216.564-.51 1.044-.882 1.44-.372.384-.804.678-1.296.882-.48.204-.99.306-1.53.306zm0-1.224c.372 0 .714-.078 1.026-.234.312-.168.576-.396.792-.684.228-.3.402-.654.522-1.062s.18-.864.18-1.368-.06-.96-.18-1.368c-.12-.42-.294-.78-.522-1.08-.216-.3-.48-.528-.792-.684-.312-.168-.654-.252-1.026-.252s-.714.084-1.026.252c-.312.156-.582.384-.81.684-.216.3-.384.66-.504 1.08-.12.408-.18.864-.18 1.368s.06.96.18 1.368.288.762.504 1.062c.228.288.498.516.81.684.312.156.654.234 1.026.234zm8.2399 1.224c-.624 0-1.218-.114-1.782-.342s-1.056-.516-1.476-.864l.738-.99c.384.312.774.564 1.17.756.408.192.876.288 1.404.288.576 0 1.008-.132 1.296-.396s.432-.588.432-.972c0-.228-.06-.426-.18-.594s-.276-.312-.468-.432c-.18-.132-.39-.246-.63-.342s-.48-.192-.72-.288c-.312-.108-.624-.228-.936-.36-.312-.144-.594-.312-.846-.504-.24-.204-.438-.438-.594-.702s-.234-.582-.234-.954c0-.348.066-.672.198-.972.144-.312.342-.576.594-.792.264-.228.582-.402.954-.522.372-.132.792-.198 1.26-.198.552 0 1.056.096 1.512.288.468.192.87.426 1.206.702l-.702.936c-.3-.228-.612-.414-.936-.558s-.678-.216-1.062-.216c-.552 0-.96.126-1.224.378-.252.252-.378.546-.378.882 0 .204.054.384.162.54.108.144.252.276.432.396.18.108.384.21.612.306.24.084.486.174.738.27.312.12.624.246.936.378.324.132.612.3.864.504.252.192.456.432.612.72.168.288.252.636.252 1.044 0 .36-.072.696-.216 1.008-.132.312-.336.588-.612.828-.264.24-.6.426-1.008.558-.396.144-.852.216-1.368.216zm7.2575 0c-.468 0-.864-.072-1.188-.216-.312-.144-.57-.342-.774-.594-.192-.252-.33-.558-.414-.918s-.126-.756-.126-1.188v-4.842h-1.296v-1.116l1.368-.09.18-2.448h1.242v2.448h2.358v1.206h-2.358v4.86c0 .54.096.96.288 1.26.204.288.558.432 1.062.432.156 0 .324-.024.504-.072s.342-.102.486-.162l.288 1.116c-.24.084-.504.156-.792.216-.276.072-.552.108-.828.108zm5.0382 0c-.624 0-1.218-.114-1.782-.342s-1.056-.516-1.476-.864l.738-.99c.384.312.774.564 1.17.756.408.192.876.288 1.404.288.576 0 1.008-.132 1.296-.396s.432-.588.432-.972c0-.228-.06-.426-.18-.594s-.276-.312-.468-.432c-.18-.132-.39-.246-.63-.342s-.48-.192-.72-.288c-.312-.108-.624-.228-.936-.36-.312-.144-.594-.312-.846-.504-.24-.204-.438-.438-.594-.702s-.234-.582-.234-.954c0-.348.066-.672.198-.972.144-.312.342-.576.594-.792.264-.228.582-.402.954-.522.372-.132.792-.198 1.26-.198.552 0 1.056.096 1.512.288.468.192.87.426 1.206.702l-.702.936c-.3-.228-.612-.414-.936-.558s-.678-.216-1.062-.216c-.552 0-.96.126-1.224.378-.252.252-.378.546-.378.882 0 .204.054.384.162.54.108.144.252.276.432.396.18.108.384.21.612.306.24.084.486.174.738.27.312.12.624.246.936.378.324.132.612.3.864.504.252.192.456.432.612.72.168.288.252.636.252 1.044 0 .36-.072.696-.216 1.008-.132.312-.336.588-.612.828-.264.24-.6.426-1.008.558-.396.144-.852.216-1.368.216z" fill="#1b1e29"/><path d="m18 36 83.5.5" stroke="#197e4e" stroke-linecap="square" stroke-width="2"/><path d="m53 36h10v10h-10z" fill="#197e4e" transform="matrix(.70710678 -.70710678 .70710678 .70710678 -9.932504 48.020815)"/></svg>