<svg fill="none" height="53" viewBox="0 0 120 53" width="120" xmlns="http://www.w3.org/2000/svg"><rect height="52" rx="7.5" stroke="#c5c5c5" width="119" x=".5" y=".5"/><path d="m29.814 22.216c-.6 0-1.164-.084-1.692-.252-.516-.18-.966-.468-1.35-.864-.372-.408-.666-.936-.882-1.584s-.324-1.446-.324-2.394v-6.93h1.494v6.966c0 .708.072 1.302.216 1.782s.336.864.576 1.152c.252.288.546.498.882.63.336.12.696.18 1.08.18.396 0 .762-.06 1.098-.18.336-.132.63-.342.882-.63s.45-.672.594-1.152.216-1.074.216-1.782v-6.966h1.44v6.93c0 .948-.108 1.746-.324 2.394s-.516 1.176-.9 1.584c-.372.396-.816.684-1.332.864-.516.168-1.074.252-1.674.252zm6.8636-.216v-8.748h1.224l.126 1.26h.054c.42-.42.858-.768 1.314-1.044.468-.288 1.008-.432 1.62-.432.924 0 1.596.288 2.016.864.432.576.648 1.428.648 2.556v5.544h-1.476v-5.346c0-.828-.132-1.422-.396-1.782-.264-.372-.684-.558-1.26-.558-.456 0-.858.114-1.206.342s-.744.564-1.188 1.008v6.336zm9.4437 0v-8.748h1.476v8.748zm.756-10.548c-.288 0-.534-.09-.738-.27-.192-.18-.288-.408-.288-.684 0-.288.096-.516.288-.684.204-.18.45-.27.738-.27s.528.09.72.27c.204.168.306.396.306.684 0 .276-.102.504-.306.684-.192.18-.432.27-.72.27zm6.0277 10.764c-.468 0-.864-.072-1.188-.216-.312-.144-.57-.342-.774-.594-.192-.252-.33-.558-.414-.918s-.126-.756-.126-1.188v-4.842h-1.296v-1.116l1.368-.09.18-2.448h1.242v2.448h2.358v1.206h-2.358v4.86c0 .54.096.96.288 1.26.204.288.558.432 1.062.432.156 0 .324-.024.504-.072s.342-.102.486-.162l.288 1.116c-.24.084-.504.156-.792.216-.276.072-.552.108-.828.108zm9.5515 0c-.828 0-1.596-.156-2.304-.468s-1.32-.738-1.836-1.278l.9-1.044c.42.444.912.804 1.476 1.08.576.264 1.17.396 1.782.396.78 0 1.386-.174 1.818-.522.432-.36.648-.828.648-1.404 0-.3-.054-.552-.162-.756-.096-.216-.234-.396-.414-.54-.168-.156-.372-.294-.612-.414s-.498-.246-.774-.378l-1.692-.738c-.276-.12-.558-.264-.846-.432s-.546-.372-.774-.612-.414-.522-.558-.846c-.144-.336-.216-.72-.216-1.152 0-.444.09-.858.27-1.242.192-.384.45-.714.774-.99.336-.288.726-.51 1.17-.666.456-.156.954-.234 1.494-.234.708 0 1.362.138 1.962.414.6.264 1.11.612 1.53 1.044l-.81.972c-.36-.348-.762-.618-1.206-.81-.432-.204-.924-.306-1.476-.306-.66 0-1.194.156-1.602.468-.396.3-.594.72-.594 1.26 0 .288.054.534.162.738.12.192.276.366.468.522.192.144.402.276.63.396.228.108.462.21.702.306l1.674.72c.336.144.654.312.954.504.3.18.558.396.774.648.216.24.384.528.504.864.132.324.198.702.198 1.134 0 .468-.096.906-.288 1.314-.18.408-.444.768-.792 1.08-.348.3-.768.54-1.26.72-.492.168-1.05.252-1.674.252zm7.8113 0c-.732 0-1.344-.216-1.836-.648-.48-.432-.72-1.044-.72-1.836 0-.96.426-1.692 1.278-2.196.852-.516 2.214-.876 4.086-1.08 0-.276-.03-.546-.09-.81-.048-.264-.138-.498-.27-.702s-.318-.366-.558-.486c-.228-.132-.522-.198-.882-.198-.504 0-.978.096-1.422.288s-.84.408-1.188.648l-.576-1.026c.408-.264.906-.516 1.494-.756.588-.252 1.236-.378 1.944-.378 1.068 0 1.842.33 2.322.99.48.648.72 1.518.72 2.61v5.364h-1.224l-.126-1.044h-.054c-.42.348-.87.648-1.35.9-.48.24-.996.36-1.548.36zm.432-1.188c.42 0 .816-.096 1.188-.288.372-.204.768-.498 1.188-.882v-2.43c-.732.096-1.35.21-1.854.342-.492.132-.894.288-1.206.468-.3.18-.522.39-.666.63-.132.228-.198.48-.198.756 0 .504.15.864.45 1.08s.666.324 1.098.324zm7.7883 1.188c-.564 0-.966-.168-1.206-.504s-.36-.828-.36-1.476v-11.052h1.476v11.16c0 .24.042.408.126.504s.18.144.288.144h.126c.048 0 .114-.012.198-.036l.198 1.116c-.096.048-.21.084-.342.108s-.3.036-.504.036zm6.1679 0c-.588 0-1.14-.102-1.656-.306-.504-.216-.948-.516-1.332-.9-.372-.396-.666-.876-.882-1.44s-.324-1.206-.324-1.926.108-1.362.324-1.926c.228-.576.522-1.062.882-1.458.372-.396.792-.696 1.26-.9.468-.216.954-.324 1.458-.324.552 0 1.044.096 1.476.288.444.192.81.468 1.098.828.3.36.528.792.684 1.296s.234 1.068.234 1.692c0 .156-.006.312-.018.468 0 .144-.012.27-.036.378h-5.904c.06.936.348 1.68.864 2.232.528.54 1.212.81 2.052.81.42 0 .804-.06 1.152-.18.36-.132.702-.3 1.026-.504l.522.972c-.384.24-.81.45-1.278.63s-1.002.27-1.602.27zm-2.754-5.292h4.68c0-.888-.192-1.56-.576-2.016-.372-.468-.9-.702-1.584-.702-.312 0-.612.06-.9.18-.276.12-.528.3-.756.54-.228.228-.42.51-.576.846-.144.336-.24.72-.288 1.152zm10.0237 5.292c-.624 0-1.218-.114-1.782-.342s-1.056-.516-1.476-.864l.738-.99c.384.312.774.564 1.17.756.408.192.876.288 1.404.288.576 0 1.008-.132 1.296-.396s.432-.588.432-.972c0-.228-.06-.426-.18-.594s-.276-.312-.468-.432c-.18-.132-.39-.246-.63-.342s-.48-.192-.72-.288c-.312-.108-.624-.228-.936-.36-.312-.144-.594-.312-.846-.504-.24-.204-.438-.438-.594-.702s-.234-.582-.234-.954c0-.348.066-.672.198-.972.144-.312.342-.576.594-.792.264-.228.582-.402.954-.522.372-.132.792-.198 1.26-.198.552 0 1.056.096 1.512.288.468.192.87.426 1.206.702l-.702.936c-.3-.228-.612-.414-.936-.558s-.678-.216-1.062-.216c-.552 0-.96.126-1.224.378-.252.252-.378.546-.378.882 0 .204.054.384.162.54.108.144.252.276.432.396.18.108.384.21.612.306.24.084.486.174.738.27.312.12.624.246.936.378.324.132.612.3.864.504.252.192.456.432.612.72.168.288.252.636.252 1.044 0 .36-.072.696-.216 1.008-.132.312-.336.588-.612.828-.264.24-.6.426-1.008.558-.396.144-.852.216-1.368.216z" fill="#1b1e29"/><path d="m18 36 83.5.5" stroke="#00518b" stroke-linecap="square" stroke-width="2"/><path d="m55 31h10v10h-10z" fill="#00518b"/></svg>